<svg id="Layer_1" data-name="Layer 1" xmlns="http://www.w3.org/2000/svg" width="621.19" height="322.13" viewBox="0 0 621.19 322.13"><defs><style>.cls-1,.cls-7{fill:#fff;stroke:#568292;}.cls-1,.cls-10,.cls-2,.cls-6,.cls-7,.cls-8{stroke-miterlimit:10;}.cls-1{stroke-width:0.28px;}.cls-2,.cls-9{fill:#14bf96;}.cls-10,.cls-2{stroke:#14bf96;}.cls-2,.cls-7{stroke-width:0.36px;}.cls-3{fill:#37c5fd;}.cls-4{fill:#0a2a66;}.cls-5{fill:#ccfbf0;}.cls-6{fill:#93dbf7;stroke:#93dbf7;stroke-width:0.89px;}.cls-8{fill:#304752;stroke:#aac0c8;}.cls-10,.cls-8{stroke-width:3px;}.cls-10{fill:none;}.cls-11{fill:#aac0c8;}</style></defs><title>lake_sensors</title><rect class="cls-1" x="148.21" y="65.14" width="33.5" height="24.04" rx="4.39" transform="translate(87.8 242.12) rotate(-90)"/><circle class="cls-2" cx="160.98" cy="71.41" r="2.5"/><rect class="cls-3" x="531.6" y="93.21" width="87.59" height="97.02" rx="2.06"/><rect class="cls-4" x="536.32" y="114.1" width="77.48" height="6.74"/><rect class="cls-4" x="536.32" y="128.42" width="77.48" height="6.74"/><rect class="cls-4" x="536.99" y="142.73" width="77.48" height="6.74"/><rect class="cls-4" x="536.99" y="157.05" width="77.48" height="6.74"/><rect class="cls-4" x="536.99" y="171.37" width="77.48" height="6.74"/><circle class="cls-5" cx="608.41" cy="102.64" r="4.04"/><path class="cls-6" d="M232.69,46.38c-64.52,7.4-144.32-57.3-195.26-13.86C-10,73-8.73,140,23.85,206.28,68.84,297.79,150.34,332,273.44,319S439,272.83,467,215.53c23.94-49,38.2-171-28-200.57S297.21,39,232.69,46.38Z"/><path class="cls-7" d="M155.57,89.18H134a18.69,18.69,0,0,1-18.69-18.69l9-37.62A18.69,18.69,0,0,1,143,14.18h2.62a18.69,18.69,0,0,1,18.69,18.69l10,37.62A18.69,18.69,0,0,1,155.57,89.18Z"/><circle class="cls-2" cx="144.76" cy="75.18" r="2.5"/><circle class="cls-8" cx="144.76" cy="32.18" r="9.5"/><path class="cls-7" d="M116.57,218.18H95a18.69,18.69,0,0,1-18.69-18.69l9-37.62A18.69,18.69,0,0,1,104,143.18h2.62a18.69,18.69,0,0,1,18.69,18.69l10,37.62A18.69,18.69,0,0,1,116.57,218.18Z"/><circle class="cls-2" cx="105.76" cy="204.18" r="2.5"/><circle class="cls-8" cx="105.76" cy="161.18" r="9.5"/><path class="cls-7" d="M265.57,157.18H244a18.69,18.69,0,0,1-18.69-18.69l9-37.62A18.69,18.69,0,0,1,253,82.18h2.62a18.69,18.69,0,0,1,18.69,18.69l10,37.62A18.69,18.69,0,0,1,265.57,157.18Z"/><circle class="cls-2" cx="254.76" cy="143.18" r="2.5"/><circle class="cls-8" cx="254.76" cy="100.18" r="9.5"/><path class="cls-7" d="M376.57,75.18H355a18.69,18.69,0,0,1-18.69-18.69l9-37.62A18.69,18.69,0,0,1,364,.18h2.62a18.69,18.69,0,0,1,18.69,18.69l10,37.62A18.69,18.69,0,0,1,376.57,75.18Z"/><circle class="cls-2" cx="365.76" cy="61.18" r="2.5"/><circle class="cls-8" cx="365.76" cy="18.18" r="9.5"/><path class="cls-7" d="M391.57,237.18H370a18.69,18.69,0,0,1-18.69-18.69l9-37.62A18.69,18.69,0,0,1,379,162.18h2.62a18.69,18.69,0,0,1,18.69,18.69l10,37.62A18.69,18.69,0,0,1,391.57,237.18Z"/><circle class="cls-2" cx="380.76" cy="223.18" r="2.5"/><circle class="cls-8" cx="380.76" cy="180.18" r="9.5"/><path class="cls-7" d="M238.57,271.18H217a18.69,18.69,0,0,1-18.69-18.69l9-37.62A18.69,18.69,0,0,1,226,196.18h2.62a18.69,18.69,0,0,1,18.69,18.69l10,37.62A18.69,18.69,0,0,1,238.57,271.18Z"/><circle class="cls-2" cx="227.76" cy="257.18" r="2.5"/><circle class="cls-8" cx="227.76" cy="214.18" r="9.5"/><path class="cls-9" d="M294.89,256.33a37,37,0,0,0-3.1-13.63c-.39-.89-1.25-2.6-1.73-3.43-.72-1.27-2-3.23-2.72-4.2a38,38,0,0,0-2.84-3.22c-.19-.09-.26-.08-.55.06a9.76,9.76,0,0,0-2.72,2.75.84.84,0,0,0-.13.72c0,.05.5.61,1.06,1.24s1.15,1.34,1.31,1.56c.41.55,1.33,1.93,1.79,2.68a31.83,31.83,0,0,1,4.5,13,34.88,34.88,0,0,1,0,7.46,31.83,31.83,0,0,1-4.69,13.26,25.51,25.51,0,0,1-2.9,3.92c-.51.58-1,1.12-1,1.18-.18.35.05.85.75,1.69a7.78,7.78,0,0,0,2.09,1.83c.48.17.55.12,1.86-1.37.59-.69,1.26-1.49,1.48-1.77.46-.63,1.57-2.29,2.09-3.15A36.93,36.93,0,0,0,294.89,256.33Z"/><path class="cls-9" d="M283.75,255.93a25.91,25.91,0,0,0-3-10.48,34.82,34.82,0,0,0-2.23-3.54c-.36-.48-1.75-2.08-1.9-2.18a.79.79,0,0,0-.64.06,14.32,14.32,0,0,0-2.65,2.42c-.73.84-1,1.39-.89,1.64a9.2,9.2,0,0,0,.62.75,13.24,13.24,0,0,1,1.47,1.93,19.79,19.79,0,0,1,3.25,9,26.7,26.7,0,0,1,0,4,19.79,19.79,0,0,1-3.25,9,13.14,13.14,0,0,1-1.47,1.92c-.31.36-.58.7-.62.76-.14.25.16.79.89,1.63a14.82,14.82,0,0,0,2.65,2.43.78.78,0,0,0,.64.05c.15-.1,1.54-1.69,1.9-2.17a31.72,31.72,0,0,0,2.71-4.49,25.39,25.39,0,0,0,1.74-4.8A26.34,26.34,0,0,0,283.75,255.93Z"/><path class="cls-9" d="M271.61,256a14,14,0,0,0-3.44-7.63c-.19-.19-.21-.2-.37-.18a1.28,1.28,0,0,0-.35.11,14.27,14.27,0,0,0-2.78,2.57c-.33.42-.52.76-.47.89a2.61,2.61,0,0,0,.3.41,8.39,8.39,0,0,1,1.53,7.95,9.34,9.34,0,0,1-1.5,2.72c-.3.35-.32.4-.22.67a10.12,10.12,0,0,0,3.13,3.12c.52.25.62.2,1.26-.59a13.89,13.89,0,0,0,2.92-7.07A19.63,19.63,0,0,0,271.61,256Z"/><path class="cls-9" d="M448.89,224.33a37,37,0,0,0-3.1-13.63c-.39-.89-1.25-2.6-1.73-3.43-.72-1.27-2-3.23-2.72-4.2a38,38,0,0,0-2.84-3.22c-.19-.09-.26-.08-.55.06a9.76,9.76,0,0,0-2.72,2.75.84.84,0,0,0-.13.72c0,.05.5.61,1.06,1.24s1.15,1.34,1.31,1.56c.41.55,1.33,1.93,1.79,2.68a31.83,31.83,0,0,1,4.5,13,34.88,34.88,0,0,1,0,7.46,31.83,31.83,0,0,1-4.69,13.26,25.51,25.51,0,0,1-2.9,3.92c-.51.58-1,1.12-1,1.18-.18.35.05.85.75,1.69a7.78,7.78,0,0,0,2.09,1.83c.48.17.55.12,1.86-1.37.59-.69,1.26-1.49,1.48-1.77.46-.63,1.57-2.29,2.09-3.15A36.93,36.93,0,0,0,448.89,224.33Z"/><path class="cls-9" d="M437.75,223.93a25.91,25.91,0,0,0-3-10.48,34.82,34.82,0,0,0-2.23-3.54c-.36-.48-1.75-2.08-1.9-2.18a.79.79,0,0,0-.64.06,14.32,14.32,0,0,0-2.65,2.42c-.73.84-1,1.39-.89,1.64a9.2,9.2,0,0,0,.62.75,13.24,13.24,0,0,1,1.47,1.93,19.79,19.79,0,0,1,3.25,9,26.7,26.7,0,0,1,0,4,19.79,19.79,0,0,1-3.25,9,13.14,13.14,0,0,1-1.47,1.92c-.31.36-.58.7-.62.76-.14.25.16.79.89,1.63a14.82,14.82,0,0,0,2.65,2.43.78.78,0,0,0,.64.05c.15-.1,1.54-1.69,1.9-2.17a31.72,31.72,0,0,0,2.71-4.49,25.39,25.39,0,0,0,1.74-4.8A26.34,26.34,0,0,0,437.75,223.93Z"/><path class="cls-9" d="M425.61,224a14,14,0,0,0-3.44-7.63c-.19-.19-.21-.2-.37-.18a1.28,1.28,0,0,0-.35.11,14.27,14.27,0,0,0-2.78,2.57c-.33.42-.52.76-.47.89a2.61,2.61,0,0,0,.3.41,8.39,8.39,0,0,1,1.53,8,9.34,9.34,0,0,1-1.5,2.72c-.3.35-.32.4-.22.67a10.12,10.12,0,0,0,3.13,3.12c.52.25.62.2,1.26-.59a13.89,13.89,0,0,0,2.92-7.07A19.63,19.63,0,0,0,425.61,224Z"/><path class="cls-9" d="M433.89,60.33a37,37,0,0,0-3.1-13.63c-.39-.89-1.25-2.6-1.73-3.43-.72-1.27-2-3.23-2.72-4.2a38,38,0,0,0-2.84-3.22c-.19-.09-.26-.08-.55.06a9.76,9.76,0,0,0-2.72,2.75.84.84,0,0,0-.13.72s.5.61,1.06,1.24,1.15,1.34,1.31,1.56c.41.55,1.33,1.93,1.79,2.68a31.83,31.83,0,0,1,4.5,13,24.9,24.9,0,0,1,.2,3.73,24.9,24.9,0,0,1-.2,3.73,31.83,31.83,0,0,1-4.69,13.26,25.51,25.51,0,0,1-2.9,3.92c-.51.58-1,1.12-1,1.18-.18.35.05.85.75,1.69A7.78,7.78,0,0,0,423,87.16c.48.17.55.12,1.86-1.37.59-.69,1.26-1.49,1.48-1.77.46-.63,1.57-2.29,2.09-3.15A36.93,36.93,0,0,0,433.89,60.33Z"/><path class="cls-9" d="M422.75,59.93a25.91,25.91,0,0,0-3-10.48,34.82,34.82,0,0,0-2.23-3.54c-.36-.48-1.75-2.08-1.9-2.18a.79.79,0,0,0-.64.06,14.32,14.32,0,0,0-2.65,2.42c-.73.84-1,1.39-.89,1.64a9.2,9.2,0,0,0,.62.75,13.24,13.24,0,0,1,1.47,1.93,19.79,19.79,0,0,1,3.25,9,26.7,26.7,0,0,1,0,4,19.79,19.79,0,0,1-3.25,9,13.14,13.14,0,0,1-1.47,1.92c-.31.36-.58.7-.62.76-.14.25.16.79.89,1.63A14.82,14.82,0,0,0,415,79.31a.78.78,0,0,0,.64,0c.15-.1,1.54-1.69,1.9-2.17a31.72,31.72,0,0,0,2.71-4.49A25.39,25.39,0,0,0,422,67.9,26.34,26.34,0,0,0,422.75,59.93Z"/><path class="cls-9" d="M410.61,60a14,14,0,0,0-3.44-7.63c-.19-.19-.21-.2-.37-.18a1.28,1.28,0,0,0-.35.11,14.27,14.27,0,0,0-2.78,2.57c-.33.42-.52.76-.47.89a2.61,2.61,0,0,0,.3.41,8.39,8.39,0,0,1,1.53,8,9.34,9.34,0,0,1-1.5,2.72c-.3.35-.32.4-.22.67a10.12,10.12,0,0,0,3.13,3.12c.52.25.62.2,1.26-.59A13.89,13.89,0,0,0,410.62,63,19.63,19.63,0,0,0,410.61,60Z"/><path class="cls-9" d="M320.89,142.33a37,37,0,0,0-3.1-13.63c-.39-.89-1.25-2.6-1.73-3.43-.72-1.27-2-3.23-2.72-4.2a38,38,0,0,0-2.84-3.22c-.19-.09-.26-.08-.55.06a9.76,9.76,0,0,0-2.72,2.75.84.84,0,0,0-.13.72c0,.05.5.61,1.06,1.24s1.15,1.34,1.31,1.56c.41.55,1.33,1.93,1.79,2.68a31.83,31.83,0,0,1,4.5,13,34.88,34.88,0,0,1,0,7.46,31.83,31.83,0,0,1-4.69,13.26,25.51,25.51,0,0,1-2.9,3.92c-.51.58-1,1.12-1,1.18-.18.35.05.85.75,1.69a7.78,7.78,0,0,0,2.09,1.83c.48.17.55.12,1.86-1.37.59-.69,1.26-1.49,1.48-1.77.46-.63,1.57-2.29,2.09-3.15A36.93,36.93,0,0,0,320.89,142.33Z"/><path class="cls-9" d="M309.75,141.93a25.91,25.91,0,0,0-3-10.48,34.82,34.82,0,0,0-2.23-3.54c-.36-.48-1.75-2.08-1.9-2.18a.79.79,0,0,0-.64.06,14.32,14.32,0,0,0-2.65,2.42c-.73.84-1,1.39-.89,1.64a9.2,9.2,0,0,0,.62.75,13.24,13.24,0,0,1,1.47,1.93,19.79,19.79,0,0,1,3.25,9,26.7,26.7,0,0,1,0,4,19.79,19.79,0,0,1-3.25,9,13.14,13.14,0,0,1-1.47,1.92c-.31.36-.58.7-.62.76-.14.25.16.79.89,1.63a14.82,14.82,0,0,0,2.65,2.43.78.78,0,0,0,.64.05c.15-.1,1.54-1.69,1.9-2.17a31.72,31.72,0,0,0,2.71-4.49,25.39,25.39,0,0,0,1.74-4.8A26.34,26.34,0,0,0,309.75,141.93Z"/><path class="cls-9" d="M297.61,142a14,14,0,0,0-3.44-7.63c-.19-.19-.21-.2-.37-.18a1.28,1.28,0,0,0-.35.11,14.27,14.27,0,0,0-2.78,2.57c-.33.42-.52.76-.47.89a2.61,2.61,0,0,0,.3.41,8.39,8.39,0,0,1,1.53,8,9.34,9.34,0,0,1-1.5,2.72c-.3.35-.32.4-.22.67a10.12,10.12,0,0,0,3.13,3.12c.52.25.62.2,1.26-.59a13.89,13.89,0,0,0,2.92-7.07A19.63,19.63,0,0,0,297.61,142Z"/><path class="cls-9" d="M172.89,203.33a37,37,0,0,0-3.1-13.63c-.39-.89-1.25-2.6-1.73-3.43-.72-1.27-2-3.23-2.72-4.2a38,38,0,0,0-2.84-3.22c-.19-.09-.26-.08-.55.06a9.76,9.76,0,0,0-2.72,2.75.84.84,0,0,0-.13.72c0,.05.5.61,1.06,1.24s1.15,1.34,1.31,1.56c.41.55,1.33,1.93,1.79,2.68a31.83,31.83,0,0,1,4.5,13,34.88,34.88,0,0,1,0,7.46,31.83,31.83,0,0,1-4.69,13.26,25.51,25.51,0,0,1-2.9,3.92c-.51.58-1,1.12-1,1.18-.18.35.05.85.75,1.69a7.78,7.78,0,0,0,2.09,1.83c.48.17.55.12,1.86-1.37.59-.69,1.26-1.49,1.48-1.77.46-.63,1.57-2.29,2.09-3.15A36.93,36.93,0,0,0,172.89,203.33Z"/><path class="cls-9" d="M161.75,202.93a25.91,25.91,0,0,0-3-10.48,34.82,34.82,0,0,0-2.23-3.54c-.36-.48-1.75-2.08-1.9-2.18a.79.79,0,0,0-.64.06,14.32,14.32,0,0,0-2.65,2.42c-.73.84-1,1.39-.89,1.64a9.2,9.2,0,0,0,.62.75,13.24,13.24,0,0,1,1.47,1.93,19.79,19.79,0,0,1,3.25,9,26.7,26.7,0,0,1,0,4,19.79,19.79,0,0,1-3.25,9,13.14,13.14,0,0,1-1.47,1.92c-.31.36-.58.7-.62.76-.14.25.16.79.89,1.63a14.82,14.82,0,0,0,2.65,2.43.78.78,0,0,0,.64.05c.15-.1,1.54-1.69,1.9-2.17a31.72,31.72,0,0,0,2.71-4.49,25.39,25.39,0,0,0,1.74-4.8A26.34,26.34,0,0,0,161.75,202.93Z"/><path class="cls-9" d="M149.61,203a14,14,0,0,0-3.44-7.63c-.19-.19-.21-.2-.37-.18a1.28,1.28,0,0,0-.35.11,14.27,14.27,0,0,0-2.78,2.57c-.33.42-.52.76-.47.89a2.61,2.61,0,0,0,.3.41,8.39,8.39,0,0,1,1.53,8,9.34,9.34,0,0,1-1.5,2.72c-.3.35-.32.4-.22.67a10.12,10.12,0,0,0,3.13,3.12c.52.25.62.2,1.26-.59a13.89,13.89,0,0,0,2.92-7.07A19.63,19.63,0,0,0,149.61,203Z"/><path class="cls-9" d="M209.89,74.33a37,37,0,0,0-3.1-13.63c-.39-.89-1.25-2.6-1.73-3.43-.72-1.27-2-3.23-2.72-4.2a38,38,0,0,0-2.84-3.22c-.19-.09-.26-.08-.55.06a9.76,9.76,0,0,0-2.72,2.75.84.84,0,0,0-.13.72s.5.61,1.06,1.24,1.15,1.34,1.31,1.56c.41.55,1.33,1.93,1.79,2.68a31.83,31.83,0,0,1,4.5,13,24.9,24.9,0,0,1,.2,3.73,24.9,24.9,0,0,1-.2,3.73,31.83,31.83,0,0,1-4.69,13.26,25.51,25.51,0,0,1-2.9,3.92c-.51.58-1,1.12-1,1.18-.18.35.05.85.75,1.69a7.78,7.78,0,0,0,2.09,1.83c.48.17.55.12,1.86-1.37.59-.69,1.26-1.49,1.48-1.77.46-.63,1.57-2.29,2.09-3.15A36.93,36.93,0,0,0,209.89,74.33Z"/><path class="cls-9" d="M198.75,73.93a25.91,25.91,0,0,0-3-10.48,34.82,34.82,0,0,0-2.23-3.54c-.36-.48-1.75-2.08-1.9-2.18a.79.79,0,0,0-.64.06,14.32,14.32,0,0,0-2.65,2.42c-.73.84-1,1.39-.89,1.64a9.2,9.2,0,0,0,.62.75,13.24,13.24,0,0,1,1.47,1.93,19.79,19.79,0,0,1,3.25,9,26.7,26.7,0,0,1,0,4,19.79,19.79,0,0,1-3.25,9,13.14,13.14,0,0,1-1.47,1.92c-.31.36-.58.7-.62.76-.14.25.16.79.89,1.63A14.82,14.82,0,0,0,191,93.31a.78.78,0,0,0,.64,0c.15-.1,1.54-1.69,1.9-2.17a31.72,31.72,0,0,0,2.71-4.49A25.39,25.39,0,0,0,198,81.9,26.34,26.34,0,0,0,198.75,73.93Z"/><path class="cls-9" d="M186.61,74a14,14,0,0,0-3.44-7.63c-.19-.19-.21-.2-.37-.18a1.28,1.28,0,0,0-.35.11,14.27,14.27,0,0,0-2.78,2.57c-.33.42-.52.76-.47.89a2.61,2.61,0,0,0,.3.41,8.39,8.39,0,0,1,1.53,8,9.34,9.34,0,0,1-1.5,2.72c-.3.35-.32.4-.22.67a10.12,10.12,0,0,0,3.13,3.12c.52.25.62.2,1.26-.59A13.89,13.89,0,0,0,186.62,77,19.63,19.63,0,0,0,186.61,74Z"/><line class="cls-10" x1="513.95" y1="139.18" x2="496.01" y2="139.18"/><polygon class="cls-9" points="510.16 134.18 512.28 139.18 510.16 144.18 522.01 139.18 510.16 134.18"/><line class="cls-10" x1="513.95" y1="122.18" x2="496.01" y2="122.18"/><polygon class="cls-9" points="510.16 117.18 512.28 122.18 510.16 127.18 522.01 122.18 510.16 117.18"/><line class="cls-10" x1="513.95" y1="156.18" x2="496.01" y2="156.18"/><polygon class="cls-9" points="510.16 151.18 512.28 156.18 510.16 161.18 522.01 156.18 510.16 151.18"/><line class="cls-10" x1="513.95" y1="170.18" x2="496.01" y2="170.18"/><polygon class="cls-9" points="510.16 165.18 512.28 170.18 510.16 175.18 522.01 170.18 510.16 165.18"/><line class="cls-11" x1="522.01" y1="181.18" x2="499.01" y2="191.18"/><line class="cls-10" x1="514.62" y1="184.4" x2="499.01" y2="191.18"/><polygon class="cls-9" points="509.15 181.32 513.09 185.06 513.13 190.49 522.01 181.18 509.15 181.32"/><line class="cls-11" x1="522.01" y1="111.18" x2="499.01" y2="101.18"/><line class="cls-10" x1="514.62" y1="107.97" x2="499.01" y2="101.18"/><polygon class="cls-9" points="513.13 101.87 513.09 107.3 509.15 111.04 522.01 111.18 513.13 101.87"/></svg>